<svg xmlns="http://www.w3.org/2000/svg" width="12" height="17" viewBox="0 0 12 17">
  <g id="Group_18" data-name="Group 18" transform="translate(0 0.133)">
    <g id="Group_16" data-name="Group 16">
      <path id="Rectangle_5" data-name="Rectangle 5" d="M0,0H7.5A2.5,2.5,0,0,1,10,2.5v0A2.5,2.5,0,0,1,7.5,5H0A0,0,0,0,1,0,5V0A0,0,0,0,1,0,0Z" transform="translate(2 1.867)" fill="#fff"/>
      <g id="Ellipse_5" data-name="Ellipse 5" transform="translate(0 -0.133)" fill="#727190" stroke="#727190" stroke-width="1">
        <ellipse cx="5.5" cy="3" rx="5.5" ry="3" stroke="none"/>
        <ellipse cx="5.5" cy="3" rx="5" ry="2.5" fill="none"/>
      </g>
    </g>
    <g id="Group_17" data-name="Group 17" transform="translate(0 10)">
      <path id="Rectangle_5-2" data-name="Rectangle 5" d="M0,0H7.5A2.5,2.5,0,0,1,10,2.5v0A2.5,2.5,0,0,1,7.5,5H0A0,0,0,0,1,0,5V0A0,0,0,0,1,0,0Z" transform="translate(2 -0.133)" fill="#fff"/>
      <g id="Ellipse_5-2" data-name="Ellipse 5" transform="translate(0 0.867)" fill="#727190" stroke="#727190" stroke-width="1">
        <ellipse cx="5.5" cy="3" rx="5.5" ry="3" stroke="none"/>
        <ellipse cx="5.5" cy="3" rx="5" ry="2.5" fill="none"/>
      </g>
    </g>
    <path id="Rectangle_6" data-name="Rectangle 6" d="M0,0H9.5a.5.5,0,0,1,.5.5v0a.5.5,0,0,1-.5.5H0A0,0,0,0,1,0,1V0A0,0,0,0,1,0,0Z" transform="translate(2 7.867)" fill="#fff"/>
  </g>
</svg>
